<svg width="640" height="640" viewBox="0 0 640 640" fill="none" xmlns="http://www.w3.org/2000/svg">
<path fill-rule="evenodd" clip-rule="evenodd" d="M412.148 3.25162C386.042 8.03426 353.809 27.1649 333.02 50.2144C322.365 62.029 297.083 102.083 270.257 149.644L225.341 229.291H171.669H117.998L105.105 251.362C68.2814 314.408 64.12 370.874 91.9683 429.656L100.514 447.692L49.9498 536.993C1.86376 621.917 -6.23902 640 3.78035 640C13.9673 640 389.959 555.486 403.686 550.112C473.87 522.629 529.284 461.203 554.594 382.827C561.901 360.2 562.847 348.953 564.743 261.918C567.037 156.703 567.969 151.809 589.523 131.869C600.879 121.363 607.47 118.818 627.781 117.095C639.553 116.097 640 115.494 640 100.705V85.3512L611.129 84.2342L582.254 83.1172L557.017 55.1046C514.702 8.14174 470.955 -7.51893 412.148 3.25162ZM495.693 48.5102C504.648 53.2353 518.001 62.9503 525.367 70.105L538.759 83.1134L503.848 83.3667C462.399 83.6661 444.8 87.635 416.156 103.138C381.011 122.158 364.795 143.883 299.457 259.469C266.476 317.816 236.352 368.575 232.512 372.272C228.675 375.968 221.895 378.989 217.448 378.989C206.688 378.989 193.995 361.267 197.084 350.558C200.094 340.125 328.021 113.986 344.425 90.0954C359.479 68.182 377.388 53.9147 401.909 44.2956C427.101 34.4156 472.865 36.473 495.693 48.5102ZM478.496 136.21C472.872 144.129 433.07 212.751 390.053 288.706C347.036 364.664 306.013 433.248 298.891 441.125C267.307 476.047 216.701 486.046 173.038 465.986C154.951 457.68 129.459 430.458 118.661 407.93C110.52 390.938 109.389 384.151 109.375 352.12C109.357 317.455 109.975 314.423 121.88 290.706L134.402 265.756L168.136 264.658C186.691 264.052 201.871 264.677 201.871 266.044C201.871 267.41 193.803 283.213 183.941 301.165C162.477 340.232 159.248 358.684 169.865 381.564C186.978 418.448 231.744 426.316 256.848 396.857C262.525 390.197 294.325 336.759 327.518 278.104C392.864 162.641 407.107 143.925 440.318 129.888C450.299 125.666 465.272 122.127 473.595 122.016L488.725 121.816L478.496 136.21ZM538.605 145.33C534.779 157.248 533.508 181.223 533.463 242.25C533.393 333.65 529.801 360.599 512.583 398.814C491.287 446.084 460.014 480.633 416.875 504.554C394.875 516.753 374.145 522.253 229.799 554.196C140.515 573.953 65.6072 589.682 63.3345 589.149C61.0409 588.611 73.0327 564.257 90.2681 534.444C107.353 504.888 121.88 479.079 122.55 477.087C123.22 475.099 129.466 478.25 136.431 484.088C176.187 517.428 240.269 521.558 289.49 493.949C319.467 477.133 332.384 458.467 415.116 312.358C475.462 205.789 500.643 164.706 514.845 149.644C538.836 124.203 545.79 122.941 538.605 145.33Z" fill="#00BFA6"/>
</svg>
