<svg width="24" height="24" viewBox="0 0 24 24" fill="none" xmlns="http://www.w3.org/2000/svg">
<path fill-rule="evenodd" clip-rule="evenodd" d="M15.4556 0.121936C14.4766 0.301285 13.2678 1.01868 12.4882 1.88304C12.0887 2.32609 11.1406 3.8281 10.1346 5.61166L8.45029 8.59842H6.4376H4.42491L3.94144 9.42607C2.56055 11.7903 2.4045 13.9078 3.44881 16.1121L3.76929 16.7885L1.87312 20.1372C0.0698911 23.3219 -0.233963 24 0.141763 24C0.523774 24 14.6235 20.8307 15.1382 20.6292C17.7701 19.5986 19.8482 17.2951 20.7973 14.356C21.0713 13.5075 21.1068 13.0857 21.1779 9.82191C21.2639 5.87637 21.2988 5.69285 22.1071 4.94508C22.533 4.55111 22.7801 4.45568 23.5418 4.39105C23.9832 4.35363 24 4.33103 24 3.77643V3.20067L22.9173 3.15878L21.8345 3.1169L20.8881 2.06642C19.3013 0.305315 17.6608 -0.28196 15.4556 0.121936ZM18.5885 1.81913C18.9243 1.99632 19.425 2.36063 19.7013 2.62894L20.2035 3.11675L18.8943 3.12625C17.34 3.13748 16.68 3.28631 15.6059 3.86769C14.2879 4.58091 13.6798 5.39561 11.2296 9.73007C9.99287 11.9181 8.8632 13.8216 8.71919 13.9602C8.57532 14.0988 8.32108 14.2121 8.15429 14.2121C7.75081 14.2121 7.2748 13.5475 7.39066 13.1459C7.50351 12.7547 12.3008 4.27446 12.9159 3.37858C13.4804 2.55682 14.152 2.0218 15.0716 1.66109C16.0163 1.29058 17.7324 1.36774 18.5885 1.81913ZM17.9436 5.10787C17.7327 5.40482 16.2401 7.97818 14.627 10.8265C13.0139 13.6749 11.4755 16.2468 11.2084 16.5422C10.024 17.8517 8.12628 18.2267 6.48892 17.4745C5.81065 17.163 4.85471 16.1422 4.44979 15.2974C4.14449 14.6602 4.10208 14.4057 4.10155 13.2045C4.1009 11.9046 4.12407 11.7909 4.57049 10.9015L5.04008 9.96585L6.30512 9.92468C7.00093 9.90194 7.57015 9.9254 7.57015 9.97664C7.57015 10.0279 7.2676 10.6205 6.89777 11.2937C6.0929 12.7587 5.97181 13.4506 6.36992 14.3087C7.01167 15.6918 8.69039 15.9869 9.6318 14.8821C9.84467 14.6324 11.0372 12.6285 12.2819 10.4289C14.7324 6.09904 15.2665 5.39719 16.5119 4.8708C16.8862 4.71247 17.4477 4.57976 17.7598 4.57558L18.3272 4.5681L17.9436 5.10787ZM20.1977 5.44987C20.0542 5.89681 20.0066 6.79586 20.0049 9.08436C20.0022 12.5119 19.8675 13.5225 19.2219 14.9555C18.4233 16.7281 17.2505 18.0238 15.6328 18.9208C14.8078 19.3782 14.0304 19.5845 8.61747 20.7824C5.26932 21.5232 2.46027 22.1131 2.37504 22.0931C2.28903 22.0729 2.73873 21.1596 3.38505 20.0416C4.02575 18.9333 4.57049 17.9655 4.59563 17.8908C4.62076 17.8162 4.85497 17.9344 5.11615 18.1533C6.60701 19.4036 9.01009 19.5584 10.8559 18.5231C11.98 17.8925 12.4644 17.1925 15.5668 11.7134C17.8298 7.71707 18.7741 6.17648 19.3067 5.61166C20.2063 4.65763 20.4671 4.61027 20.1977 5.44987Z" fill="white"/>
</svg>
