<svg width="36" height="36" viewBox="0 0 36 36" fill="none" xmlns="http://www.w3.org/2000/svg">
<rect width="36" height="36" fill="#00BFA6"/>
<path fill-rule="evenodd" clip-rule="evenodd" d="M21.4556 6.12194C20.4766 6.30128 19.2678 7.01868 18.4882 7.88304C18.0887 8.32609 17.1406 9.8281 16.1346 11.6117L14.4503 14.5984H12.4376H10.4249L9.94144 15.4261C8.56055 17.7903 8.4045 19.9078 9.44881 22.1121L9.76929 22.7885L7.87312 26.1372C6.06989 29.3219 5.76604 30 6.14176 30C6.52377 30 20.6235 26.8307 21.1382 26.6292C23.7701 25.5986 25.8482 23.2951 26.7973 20.356C27.0713 19.5075 27.1068 19.0857 27.1779 15.8219C27.2639 11.8764 27.2988 11.6928 28.1071 10.9451C28.533 10.5511 28.7801 10.4557 29.5418 10.3911C29.9832 10.3536 30 10.331 30 9.77643V9.20067L28.9173 9.15878L27.8345 9.1169L26.8881 8.06642C25.3013 6.30532 23.6608 5.71804 21.4556 6.12194ZM24.5885 7.81913C24.9243 7.99632 25.425 8.36063 25.7013 8.62894L26.2035 9.11675L24.8943 9.12625C23.34 9.13748 22.68 9.28631 21.6059 9.86769C20.2879 10.5809 19.6798 11.3956 17.2296 15.7301C15.9929 17.9181 14.8632 19.8216 14.7192 19.9602C14.5753 20.0988 14.3211 20.2121 14.1543 20.2121C13.7508 20.2121 13.2748 19.5475 13.3907 19.1459C13.5035 18.7547 18.3008 10.2745 18.9159 9.37858C19.4804 8.55682 20.152 8.0218 21.0716 7.66109C22.0163 7.29058 23.7324 7.36774 24.5885 7.81913ZM23.9436 11.1079C23.7327 11.4048 22.2401 13.9782 20.627 16.8265C19.0139 19.6749 17.4755 22.2468 17.2084 22.5422C16.024 23.8517 14.1263 24.2267 12.4889 23.4745C11.8107 23.163 10.8547 22.1422 10.4498 21.2974C10.1445 20.6602 10.1021 20.4057 10.1016 19.2045C10.1009 17.9046 10.1241 17.7909 10.5705 16.9015L11.0401 15.9658L12.3051 15.9247C13.0009 15.9019 13.5701 15.9254 13.5701 15.9766C13.5701 16.0279 13.2676 16.6205 12.8978 17.2937C12.0929 18.7587 11.9718 19.4506 12.3699 20.3087C13.0117 21.6918 14.6904 21.9869 15.6318 20.8821C15.8447 20.6324 17.0372 18.6285 18.2819 16.4289C20.7324 12.099 21.2665 11.3972 22.5119 10.8708C22.8862 10.7125 23.4477 10.5798 23.7598 10.5756L24.3272 10.5681L23.9436 11.1079ZM26.1977 11.4499C26.0542 11.8968 26.0066 12.7959 26.0049 15.0844C26.0022 18.5119 25.8675 19.5225 25.2219 20.9555C24.4233 22.7281 23.2505 24.0238 21.6328 24.9208C20.8078 25.3782 20.0304 25.5845 14.6175 26.7824C11.2693 27.5232 8.46027 28.1131 8.37504 28.0931C8.28903 28.0729 8.73873 27.1596 9.38505 26.0416C10.0258 24.9333 10.5705 23.9655 10.5956 23.8908C10.6208 23.8162 10.855 23.9344 11.1161 24.1533C12.607 25.4036 15.0101 25.5584 16.8559 24.5231C17.98 23.8925 18.4644 23.1925 21.5668 17.7134C23.8298 13.7171 24.7741 12.1765 25.3067 11.6117C26.2063 10.6576 26.4671 10.6103 26.1977 11.4499Z" fill="white"/>
</svg>
